<svg height="512" viewBox="0 0 192 192" width="512" xmlns="http://www.w3.org/2000/svg"><g id="_11-parking" data-name="11-parking"><g id="Glyph"><path d="m96 0a80.091 80.091 0 0 0 -80 80c0 59.6 72.477 108.6 75.563 110.656a8.067 8.067 0 0 0 8.874 0c3.086-2.056 75.563-51.056 75.563-110.656a80.091 80.091 0 0 0 -80-80zm0 145a64 64 0 1 1 64-64 64 64 0 0 1 -64 64z"/><circle cx="120" cy="88" r="8"/><path d="m113.754 56h-35.508l-4 16h43.508z"/><circle cx="72" cy="88" r="8"/><path d="m96 24a56 56 0 1 0 56 56 56 56 0 0 0 -56-56zm39.01 62.869a4 4 0 0 1 .99 2.631v22.5h-16v-8h-48v8h-16v-22.5a4 4 0 0 1 .99-2.634l6.01-6.866h-7v-8h10l5.243-20.97a4 4 0 0 1 3.88-3.03h41.754a4 4 0 0 1 3.88 3.03l5.243 20.97h10v8h-7z"/></g></g></svg>